<svg xmlns="http://www.w3.org/2000/svg" viewBox="0 0 100 100" width="32" height="32">
  <defs>
    <linearGradient id="grad" x1="0%" y1="0%" x2="100%" y2="100%">
      <stop offset="0%" style="stop-color:#667eea;stop-opacity:1" />
      <stop offset="100%" style="stop-color:#764ba2;stop-opacity:1" />
    </linearGradient>
  </defs>
  <rect width="100" height="100" rx="20" fill="url(#grad)"/>
  <g fill="white">
    <!-- QR Code pattern -->
    <rect x="20" y="20" width="8" height="8"/>
    <rect x="32" y="20" width="8" height="8"/>
    <rect x="44" y="20" width="8" height="8"/>
    <rect x="56" y="20" width="8" height="8"/>
    <rect x="68" y="20" width="8" height="8"/>
    
    <rect x="20" y="32" width="8" height="8"/>
    <rect x="44" y="32" width="8" height="8"/>
    <rect x="68" y="32" width="8" height="8"/>
    
    <rect x="20" y="44" width="8" height="8"/>
    <rect x="32" y="44" width="8" height="8"/>
    <rect x="44" y="44" width="8" height="8"/>
    <rect x="56" y="44" width="8" height="8"/>
    <rect x="68" y="44" width="8" height="8"/>
    
    <rect x="20" y="56" width="8" height="8"/>
    <rect x="44" y="56" width="8" height="8"/>
    <rect x="68" y="56" width="8" height="8"/>
    
    <rect x="20" y="68" width="8" height="8"/>
    <rect x="32" y="68" width="8" height="8"/>
    <rect x="44" y="68" width="8" height="8"/>
    <rect x="56" y="68" width="8" height="8"/>
    <rect x="68" y="68" width="8" height="8"/>
    
    <!-- Position detection patterns -->
    <rect x="20" y="20" width="8" height="8" fill="none" stroke="white" stroke-width="2"/>
    <rect x="68" y="20" width="8" height="8" fill="none" stroke="white" stroke-width="2"/>
    <rect x="20" y="68" width="8" height="8" fill="none" stroke="white" stroke-width="2"/>
  </g>
</svg> 